<svg xmlns="http://www.w3.org/2000/svg" viewBox="0 0 64 64"><path d="M13,24 Q4,20 7,11 Q13,14 17,19 Z" fill="#E8D5B5"/><path d="M51,24 Q60,20 57,11 Q51,14 47,19 Z" fill="#E8D5B5"/><ellipse cx="17" cy="27" rx="5" ry="3.6" fill="#8C6455"/><ellipse cx="47" cy="27" rx="5" ry="3.6" fill="#8C6455"/><circle cx="32" cy="37" r="19" fill="#A98876"/><path d="M25,20 Q32,14 39,20 Q36,24 32,23 Q28,24 25,20 Z" fill="#6E4F42"/><ellipse cx="32" cy="45" rx="10.5" ry="7.5" fill="#DCC0A6"/><ellipse cx="27.5" cy="45" rx="1.8" ry="2.4" fill="#6E4F42"/><ellipse cx="36.5" cy="45" rx="1.8" ry="2.4" fill="#6E4F42"/><circle cx="24" cy="33" r="2.4" fill="#33261F"/><circle cx="24.9" cy="32.2" r="0.8" fill="#fff"/><circle cx="40" cy="33" r="2.4" fill="#33261F"/><circle cx="40.9" cy="32.2" r="0.8" fill="#fff"/></svg>
