<svg xmlns="http://www.w3.org/2000/svg" viewBox="0 0 64 64"><path d="M16,26 L13,10 L26,17 Z" fill="#E8B77F"/><path d="M48,26 L51,10 L38,17 Z" fill="#E8B77F"/><path d="M16.5,24 L15,13.5 L24,18.5 Z" fill="#F5DEC0"/><path d="M47.5,24 L49,13.5 L40,18.5 Z" fill="#F5DEC0"/><circle cx="32" cy="37" r="19" fill="#F2C99A"/><circle cx="25" cy="34" r="2.4" fill="#3A2E2A"/><circle cx="25.9" cy="33.2" r="0.8" fill="#fff"/><circle cx="39" cy="34" r="2.4" fill="#3A2E2A"/><circle cx="39.9" cy="33.2" r="0.8" fill="#fff"/><path d="M30.8,40 L33.2,40 L32,41.8 Z" fill="#D98A66"/><path d="M32,41.8 Q32,44.5 29.8,45 M32,41.8 Q32,44.5 34.2,45" fill="none" stroke="#B07A52" stroke-width="1.1" stroke-linecap="round"/><path d="M14,38 L20,39 M14,43 L20,42.5 M50,38 L44,39 M50,43 L44,42.5" stroke="#C79A6B" stroke-width="1.2" stroke-linecap="round"/><circle cx="19" cy="42" r="3" fill="#F4B98C" opacity=".85"/><circle cx="45" cy="42" r="3" fill="#F4B98C" opacity=".85"/></svg>
