<svg xmlns="http://www.w3.org/2000/svg" viewBox="0 0 64 64"><path d="M44,30 Q58,22 55,8 Q44,10 42,22 Z" fill="#C98F5F"/><path d="M45.5,27 Q53,21 52,12 Q46,14 44.5,21 Z" fill="#E8C49A"/><path d="M18,22 L15,10 L26,15 Z" fill="#C98F5F"/><path d="M46,22 L49,10 L38,15 Z" fill="#C98F5F"/><circle cx="32" cy="37" r="19" fill="#D9A470"/><ellipse cx="32" cy="44" rx="8.5" ry="6.2" fill="#F2DDBE"/><ellipse cx="32" cy="41" rx="2.6" ry="2" fill="#4A342A"/><path d="M32,43 Q32,45.8 29.8,46.3 M32,43 Q32,45.8 34.2,46.3" fill="none" stroke="#4A342A" stroke-width="1.1" stroke-linecap="round"/><circle cx="24" cy="33" r="2.4" fill="#3A2E2A"/><circle cx="24.9" cy="32.2" r="0.8" fill="#fff"/><circle cx="40" cy="33" r="2.4" fill="#3A2E2A"/><circle cx="40.9" cy="32.2" r="0.8" fill="#fff"/><circle cx="18" cy="40" r="3" fill="#E8B285" opacity=".85"/><circle cx="46" cy="40" r="3" fill="#E8B285" opacity=".85"/></svg>
