<svg xmlns="http://www.w3.org/2000/svg" viewBox="0 0 64 64"><path d="M14,26 L11,9 L26,16 Z" fill="#E8934E"/><path d="M50,26 L53,9 L38,16 Z" fill="#E8934E"/><path d="M15.5,23.5 L13.5,12.5 L23.5,17.5 Z" fill="#FBEADB"/><path d="M48.5,23.5 L50.5,12.5 L40.5,17.5 Z" fill="#FBEADB"/><circle cx="32" cy="37" r="19" fill="#F0A55E"/><path d="M32,44 Q22,46 17,38 Q22,50 32,50 Q42,50 47,38 Q42,46 32,44 Z" fill="#FBEADB"/><ellipse cx="32" cy="42" rx="2.6" ry="2" fill="#4A342A"/><circle cx="24" cy="33" r="2.4" fill="#3A2E2A"/><circle cx="24.9" cy="32.2" r="0.8" fill="#fff"/><circle cx="40" cy="33" r="2.4" fill="#3A2E2A"/><circle cx="40.9" cy="32.2" r="0.8" fill="#fff"/><circle cx="18" cy="40" r="3" fill="#F4BE8A" opacity=".9"/><circle cx="46" cy="40" r="3" fill="#F4BE8A" opacity=".9"/></svg>
