<svg xmlns="http://www.w3.org/2000/svg" viewBox="0 0 64 64"><path d="M16,15 Q8,17 11,28 Q15,26 19,21 Z" fill="#C7A17E"/><path d="M48,15 Q56,17 53,28 Q49,26 45,21 Z" fill="#C7A17E"/><circle cx="32" cy="37" r="19" fill="#E3C6A2"/><ellipse cx="32" cy="43" rx="8.5" ry="6" fill="#F7EBDA"/><ellipse cx="32" cy="41" rx="3" ry="2.3" fill="#4A342A"/><path d="M32,43.3 Q32,46 29.6,46.5 M32,43.3 Q32,46 34.4,46.5" fill="none" stroke="#4A342A" stroke-width="1.2" stroke-linecap="round"/><circle cx="24" cy="33" r="2.4" fill="#3A2E2A"/><circle cx="24.9" cy="32.2" r="0.8" fill="#fff"/><circle cx="40" cy="33" r="2.4" fill="#3A2E2A"/><circle cx="40.9" cy="32.2" r="0.8" fill="#fff"/><path d="M26,25 Q28,22 31,23" fill="none" stroke="#C7A17E" stroke-width="1.4" stroke-linecap="round"/><circle cx="18" cy="40" r="3" fill="#E8CBA4" opacity=".9"/><circle cx="46" cy="40" r="3" fill="#E8CBA4" opacity=".9"/></svg>
